<svg width="149" height="149" viewBox="0 0 149 149" fill="none" xmlns="http://www.w3.org/2000/svg">
<path d="M54.6527 13.2412C54.6527 13.2412 50.9859 15.1648 47.29 17.9935C45.4566 19.4078 43.565 21.0492 42.0518 22.9233C40.5385 24.7974 39.2871 26.9655 39.2871 29.5381C39.2871 32.0408 40.6258 34.107 42.1973 35.533C43.7397 36.9299 45.5439 37.9193 47.2318 38.8506C48.9197 39.7818 50.5203 40.684 51.5971 41.557C52.6738 42.4301 53.1686 43.1285 53.285 43.9143C53.6051 45.835 51.7717 50.3457 49.4436 53.9543C47.0863 57.5629 44.6127 60.3857 44.6127 60.3857L48.5123 63.8779C48.5123 63.8779 51.2479 60.7932 53.8379 56.8062C56.4279 52.8193 59.2508 48.0176 58.465 43.0994C58.0576 40.6258 56.5443 38.7924 54.8856 37.4828C53.2559 36.1441 51.4225 35.1838 49.7637 34.2525C48.1049 33.3504 46.5916 32.4482 45.6895 31.6334C44.7873 30.8186 44.5254 30.3238 44.5254 29.5381C44.5254 28.8135 45.0201 27.5825 46.126 26.2176C47.2318 24.8498 48.8324 23.4122 50.4912 22.155C53.7797 19.6436 57.0973 17.8742 57.0973 17.8742L54.6527 13.2412ZM80.8441 22.6788C80.8441 22.6788 77.2355 24.035 73.5396 26.043C71.7063 27.047 69.8147 28.2023 68.2723 29.5672C66.7008 30.935 65.1875 32.5938 65.1875 35.0674C65.1875 37.4537 66.8463 39.1416 68.4178 40.1602C69.9893 41.1496 71.7354 41.848 73.4523 42.5174C75.1402 43.1576 76.7699 43.827 77.8467 44.4381C78.9234 45.0783 79.2145 45.573 79.2145 45.6021C79.2727 45.7768 79.1563 46.6789 78.4869 47.8721C77.8467 49.0361 76.7408 50.433 75.6059 51.6844C73.3068 54.2162 70.8332 56.2242 70.8332 56.2242L74.0926 60.2984C74.0926 60.2984 76.8281 58.1158 79.4764 55.2348C80.7859 53.7797 82.0955 52.1791 83.085 50.4039C84.0453 48.6578 84.8311 46.6789 84.3363 44.4381C83.8125 42.1682 82.0955 40.8586 80.4658 39.8982C78.8361 38.967 77.0318 38.2977 75.3439 37.6283C73.6852 36.959 72.1428 36.3188 71.2697 35.7367C70.6004 35.3293 70.4549 35.1256 70.4258 35.0674C70.484 35.0674 70.7459 34.3689 71.7063 33.4959C72.783 32.5646 74.3836 31.5461 76.0424 30.6439C79.3309 28.8513 82.7066 27.5795 82.7066 27.5795L80.8441 22.6788ZM100.488 26.4097C99.4109 26.6105 98.2178 27.6814 97.3156 29.509C96.4135 31.3424 95.977 33.7287 96.1225 35.3875C96.1516 35.7076 97.3156 37.7738 98.7416 39.258C100.197 40.7422 101.623 41.848 101.623 41.848L102.932 42.8375L99.8475 57.7666L104.009 59.0471L110.44 46.7662C108.956 45.1656 107.472 43.3031 107.268 40.6549C107.123 38.4432 107.443 36.0859 108.258 33.8451C106.424 33.3504 105.988 32.39 105.319 31.517C104.591 30.6439 103.893 29.6545 103.194 28.7902C102.496 27.9142 101.768 27.1547 101.215 26.7647C100.691 26.3777 100.546 26.4126 100.488 26.4126V26.4097ZM116.872 31.2551C115.795 31.4588 114.602 32.5064 113.7 34.3398C112.827 36.1732 112.361 38.5596 112.507 40.2475C112.536 40.5676 113.7 42.6338 115.126 44.118C116.581 45.6021 118.007 46.708 118.007 46.708L119.316 47.6975L116.203 62.6557L120.364 63.9652L127.872 49.6182L128.949 49.3271C128.949 49.3271 131.685 48.5123 134.537 47.1736C135.962 46.5043 137.388 45.6895 138.407 44.8746C139.455 44.0307 140.008 43.2449 140.095 42.8666V42.8375C140.531 41.3242 140.211 38.9088 139.222 36.8426C138.203 34.8055 136.603 33.2631 135.206 32.8266C135.148 32.7975 135.002 32.7684 134.391 33.1176C133.78 33.4668 132.936 34.1652 132.063 34.9801C131.19 35.824 130.288 36.7262 129.211 37.5119C128.163 38.2977 126.679 39.1998 124.758 38.7051C122.838 38.2395 122.401 37.2209 121.703 36.3479C120.975 35.4748 120.277 34.4854 119.578 33.6123C118.88 32.7393 118.152 31.9826 117.599 31.6043C117.076 31.1969 116.93 31.2551 116.872 31.2551ZM26.8782 34.8928C26.8782 34.8928 23.2405 36.4643 19.5417 38.8215C17.6908 40.0146 15.808 41.3533 14.2656 42.9539C12.7232 44.5545 11.3438 46.4461 11.3438 48.9197C11.3438 51.3061 12.8629 53.1977 14.4256 54.3617C15.9913 55.5258 17.7665 56.3406 19.4602 57.1264C21.1539 57.883 22.7632 58.6396 23.8429 59.3672C24.9197 60.0947 25.2864 60.6477 25.3591 61.026C25.461 61.5498 25.2718 62.7721 24.5763 64.2271C23.8837 65.6531 22.7836 67.3119 21.6225 68.7961C19.3031 71.7645 16.8207 74.0926 16.8207 74.0926L20.4118 77.934C20.4118 77.934 23.1387 75.373 25.752 71.9973C27.0586 70.3385 28.3537 68.4469 29.3053 66.468C30.2656 64.4891 30.9641 62.3355 30.4984 60.0365C30.0619 57.7084 28.4089 56.1369 26.7705 55.0311C25.1292 53.9252 23.3133 53.1104 21.6457 52.3537C19.9782 51.5971 18.4591 50.8404 17.5657 50.1711C16.6752 49.5018 16.5792 49.2398 16.5792 48.9197C16.5792 48.6578 16.9458 47.7266 18.0226 46.5916C19.0994 45.4857 20.7087 44.2926 22.35 43.2449C25.6356 41.1496 28.9822 39.6654 28.9822 39.6654L26.8782 34.8928ZM96.2971 62.1318C95.6277 62.5975 94.0563 63.7324 91.8736 65.3912C95.3658 66.1187 98.9453 67.0791 102.554 68.2432C103.02 67.8648 103.427 67.5447 103.863 67.1955C103.718 65.9732 103.572 65.0129 103.485 64.3727L96.2971 62.1318ZM112.71 67.0209C111.401 67.9521 107.006 71.1533 101.303 76.1297C94.6674 81.8918 87.2756 89.4 84.3363 95.3658C82.1246 99.8475 79.5928 105.319 78.3414 110.499C77.09 115.679 77.1482 120.306 79.3018 123.536C80.524 125.37 82.4156 125.952 85.2385 125.893C88.0613 125.864 91.4371 124.962 94.2309 124.089C104.038 120.888 114.311 113.874 118.967 103.776C121.062 99.2363 121.47 89.9529 121.063 82.0955C120.742 75.6932 120.102 71.1242 119.84 69.2908L112.71 67.0209ZM80.1457 69.3781C79.8256 69.3781 79.4764 69.3781 79.1563 69.4072C68.0104 69.9893 55.2639 72.1719 44.3217 76.6826C33.3504 81.1643 24.2562 87.8867 19.8414 97.4029C18.2438 100.837 18.3427 105.464 19.7949 109.364C21.2471 113.263 23.9506 116.144 26.7967 116.901C39.2871 120.16 56.2533 121.557 72.8703 121.848C71.8518 118.007 72.201 113.816 73.1322 109.8C64.0816 113.234 50.8695 114.049 34.1943 108.782L31.7207 107.996L32.4773 105.522C34.6309 98.2469 41.2078 88.7307 51.9172 83.8125L54.1289 88.5852C46.3006 92.1646 40.8586 99.1199 38.4432 104.562C55.7586 109.422 68.3305 106.89 75.1984 103.02C76.5371 99.3818 78.1668 95.977 79.6219 93.0377C83.2596 85.7041 90.8842 78.2541 97.694 72.3465C91.6699 70.6004 85.8787 69.4363 81.1061 69.3781H80.1457ZM126.388 83.7252C126.708 91.408 126.475 99.993 123.74 105.988C121.004 111.896 116.785 116.755 111.866 120.626C114.165 120.422 116.348 120.219 118.298 119.986C121.906 119.607 124.875 119.171 126.97 118.763C128.018 118.531 128.862 118.327 129.415 118.181C129.618 118.094 129.735 118.036 129.822 117.978C133.343 113.583 136.748 109.422 139.018 105.115C141.143 100.982 142.307 96.7918 141.754 91.7281C140.561 91.0297 134.769 87.7412 126.388 83.7252ZM15.4646 112.594C13.8931 113.292 12.5195 113.991 11.3787 114.718C8.20955 116.726 7.11243 118.502 7.11243 119.753C7.11243 121.004 8.20955 122.779 11.3787 124.787C14.5479 126.796 19.466 128.745 25.6239 130.404C37.9484 133.663 55.2639 135.759 74.3545 135.759C93.4451 135.759 110.761 133.663 123.071 130.404C129.24 128.745 134.129 126.796 137.301 124.787C140.473 122.779 141.579 121.004 141.579 119.753C141.579 118.676 140.735 117.192 138.465 115.504C136.865 117.599 135.206 119.637 133.576 121.674L133.489 121.819L133.343 121.936C132.412 122.809 131.801 122.896 130.957 123.158C130.142 123.42 129.153 123.653 127.989 123.885C125.661 124.351 122.576 124.788 118.88 125.195C114.195 125.719 108.52 126.184 102.263 126.534C100.109 127.552 97.9559 128.396 95.8314 129.095H95.8024C92.8631 130.026 89.109 131.073 85.3258 131.132C81.8336 131.219 77.934 130.229 75.4604 127.145C57.8248 126.97 39.4326 125.602 25.4755 121.965C20.8425 120.742 17.458 117.017 15.4646 112.594Z" fill="#F38906"/>
</svg>
