<svg width="165" height="143" viewBox="0 0 165 143" fill="none" xmlns="http://www.w3.org/2000/svg">
<path d="M152.316 105.579C152.316 112.056 149.697 118.267 145.034 122.847C140.371 127.427 134.047 130 127.453 130H108.806C102.211 130 95.8874 127.427 91.2246 122.847C86.5618 118.267 83.9423 112.056 83.9423 105.579V93.3684H126.148L143.303 64.2463L153 69.7411L139.077 93.3684H152.316V105.579ZM71.5107 130H28C28 111.684 28 93.3684 30.0512 74.0147C31.7295 58.5684 34.7131 42.4505 37.9453 26.2105H34.2158V14H65.2949V26.2105H61.5654C64.7976 42.4505 67.7812 58.5684 69.4595 74.0147C71.5107 93.3684 71.5107 111.684 71.5107 130Z" fill="#F38906"/>
</svg>
