<svg width="181" height="172" viewBox="0 0 181 172" fill="none" xmlns="http://www.w3.org/2000/svg">
<path d="M22.625 28.6667C18.6246 28.6667 14.7881 30.1769 11.9594 32.8649C9.13076 35.5529 7.54163 39.1986 7.54163 43.0001V121.833H22.625C22.625 127.536 25.0087 133.004 29.2517 137.036C33.4947 141.068 39.2494 143.333 45.25 143.333C51.2505 143.333 57.0052 141.068 61.2483 137.036C65.4913 133.004 67.875 127.536 67.875 121.833H113.125C113.125 127.536 115.509 133.004 119.752 137.036C123.995 141.068 129.749 143.333 135.75 143.333C141.75 143.333 147.505 141.068 151.748 137.036C155.991 133.004 158.375 127.536 158.375 121.833H173.458V86.0001L150.833 57.3334H128.208V28.6667M75.4166 43.0001L105.583 71.6667L75.4166 100.333V78.8334H30.1666V64.5001H75.4166M128.208 68.0834H147.062L161.92 86.0001H128.208M45.25 111.083C48.2502 111.083 51.1276 112.216 53.2491 114.232C55.3706 116.248 56.5625 118.982 56.5625 121.833C56.5625 124.684 55.3706 127.419 53.2491 129.435C51.1276 131.451 48.2502 132.583 45.25 132.583C42.2497 132.583 39.3723 131.451 37.2508 129.435C35.1293 127.419 33.9375 124.684 33.9375 121.833C33.9375 118.982 35.1293 116.248 37.2508 114.232C39.3723 112.216 42.2497 111.083 45.25 111.083ZM135.75 111.083C138.75 111.083 141.628 112.216 143.749 114.232C145.871 116.248 147.062 118.982 147.062 121.833C147.062 124.684 145.871 127.419 143.749 129.435C141.628 131.451 138.75 132.583 135.75 132.583C132.75 132.583 129.872 131.451 127.751 129.435C125.629 127.419 124.437 124.684 124.437 121.833C124.437 118.982 125.629 116.248 127.751 114.232C129.872 112.216 132.75 111.083 135.75 111.083Z" fill="#F38906"/>
</svg>
