<svg width="34" height="34" viewBox="0 0 34 34" fill="none" xmlns="http://www.w3.org/2000/svg">
<path d="M33.4063 17C33.4063 13.7552 32.444 10.5832 30.6413 7.88518C28.8386 5.18719 26.2763 3.08436 23.2784 1.84261C20.2806 0.600858 16.9818 0.27596 13.7993 0.908999C10.6168 1.54204 7.69349 3.10458 5.39904 5.39904C3.10458 7.69349 1.54204 10.6168 0.908999 13.7993C0.27596 16.9818 0.600858 20.2806 1.84261 23.2784C3.08436 26.2763 5.18719 28.8386 7.88518 30.6413C10.5832 32.444 13.7552 33.4063 17 33.4063C21.3486 33.3976 25.5165 31.6663 28.5914 28.5914C31.6663 25.5165 33.3976 21.3486 33.4063 17ZM17.6563 32.0774V20.2813H22.25C22.4241 20.2813 22.591 20.2121 22.714 20.089C22.8371 19.966 22.9063 19.7991 22.9063 19.625C22.9063 19.451 22.8371 19.284 22.714 19.161C22.591 19.0379 22.4241 18.9688 22.25 18.9688H17.6563V14.375C17.6606 13.5061 18.0077 12.674 18.6221 12.0596C19.2365 11.4452 20.0686 11.0981 20.9375 11.0938H23.5625C23.7366 11.0938 23.9035 11.0246 24.0265 10.9015C24.1496 10.7785 24.2188 10.6116 24.2188 10.4375C24.2188 10.2635 24.1496 10.0965 24.0265 9.97347C23.9035 9.8504 23.7366 9.78126 23.5625 9.78126H20.9375C19.7205 9.78558 18.5546 10.271 17.694 11.1315C16.8335 11.9921 16.3481 13.158 16.3438 14.375V18.9688H11.75C11.576 18.9688 11.409 19.0379 11.286 19.161C11.1629 19.284 11.0938 19.451 11.0938 19.625C11.0938 19.7991 11.1629 19.966 11.286 20.089C11.409 20.2121 11.576 20.2813 11.75 20.2813H16.3438V32.0774C12.4012 31.9058 8.68266 30.197 5.98471 27.317C3.28677 24.4371 1.82402 20.615 1.90983 16.6697C1.99563 12.7243 3.62318 8.9695 6.44379 6.20957C9.2644 3.44964 13.0537 1.90412 17 1.90412C20.9463 1.90412 24.7356 3.44964 27.5562 6.20957C30.3768 8.9695 32.0044 12.7243 32.0902 16.6697C32.176 20.615 30.7132 24.4371 28.0153 27.317C25.3174 30.197 21.5988 31.9058 17.6563 32.0774Z" fill="#F4F4F4"/>
</svg>
