<svg width="50" height="51" viewBox="0 0 50 51" fill="none" xmlns="http://www.w3.org/2000/svg">
<path d="M29.1667 24.4375C29.8506 24.4375 30.5279 24.3001 31.1598 24.0331C31.7917 23.7661 32.3659 23.3748 32.8495 22.8815C33.3332 22.3882 33.7168 21.8025 33.9785 21.158C34.2403 20.5135 34.375 19.8226 34.375 19.125C34.375 17.716 33.8263 16.3648 32.8495 15.3685C31.8728 14.3722 30.548 13.8125 29.1667 13.8125C27.7853 13.8125 26.4606 14.3722 25.4838 15.3685C24.5071 16.3648 23.9583 17.716 23.9583 19.125C23.9583 19.8226 24.0931 20.5135 24.3548 21.158C24.6165 21.8025 25.0002 22.3882 25.4838 22.8815C26.4606 23.8778 27.7853 24.4375 29.1667 24.4375ZM29.1667 4.25C37.2083 4.25 43.75 10.9013 43.75 19.125C43.75 30.2812 29.1667 46.75 29.1667 46.75C29.1667 46.75 14.5833 30.2812 14.5833 19.125C14.5833 15.1799 16.1198 11.3964 18.8547 8.60679C21.5896 5.81718 25.2989 4.25 29.1667 4.25ZM10.4167 19.125C10.4167 28.6875 21 41.7775 22.9167 44.2212L20.8333 46.75C20.8333 46.75 6.25 30.2812 6.25 19.125C6.25 12.3888 10.6458 6.69375 16.6667 4.86625C12.8333 8.3725 10.4167 13.4513 10.4167 19.125Z" fill="#F38906"/>
</svg>
