<svg width="51" height="51" viewBox="0 0 51 51" fill="none" xmlns="http://www.w3.org/2000/svg">
<path d="M42.5 25.5C41.9333 25.5 41.429 25.296 40.987 24.888C40.5436 24.4814 40.2865 23.9771 40.2156 23.375C39.7552 20.0813 38.3655 17.2741 36.0464 14.9536C33.7259 12.6345 30.9188 11.2448 27.625 10.7844C27.0229 10.7135 26.5186 10.4656 26.112 10.0406C25.704 9.61562 25.5 9.10208 25.5 8.5C25.5 7.89792 25.7125 7.39287 26.1375 6.98487C26.5625 6.57829 27.0583 6.41042 27.625 6.48125C32.0875 6.97708 35.8948 8.80104 39.0469 11.9531C42.199 15.1052 44.0229 18.9125 44.5188 23.375C44.5896 23.9417 44.421 24.4375 44.013 24.8625C43.6064 25.2875 43.1021 25.5 42.5 25.5ZM33.6281 25.5C33.1677 25.5 32.7604 25.3406 32.4062 25.0219C32.0521 24.7031 31.7865 24.2781 31.6094 23.7469C31.326 22.7198 30.7863 21.8075 29.9901 21.0099C29.1925 20.2137 28.2802 19.674 27.2531 19.3906C26.7219 19.2135 26.2969 18.9479 25.9781 18.5938C25.6594 18.2396 25.5 17.8146 25.5 17.3187C25.5 16.6104 25.7479 16.0345 26.2438 15.5911C26.7396 15.1491 27.2885 14.999 27.8906 15.1406C29.874 15.601 31.5832 16.5481 33.0182 17.9817C34.4519 19.4168 35.399 21.126 35.8594 23.1094C36.001 23.7115 35.8417 24.2604 35.3812 24.7562C34.9208 25.2521 34.3365 25.5 33.6281 25.5ZM42.3938 44.625C37.825 44.625 33.3717 43.6064 29.0339 41.5693C24.6946 39.5335 20.8519 36.8418 17.5057 33.4942C14.1582 30.1481 11.4665 26.3054 9.43075 21.9661C7.39358 17.6283 6.375 13.175 6.375 8.60625C6.375 7.96875 6.5875 7.4375 7.0125 7.0125C7.4375 6.5875 7.96875 6.375 8.60625 6.375H17.2125C17.7083 6.375 18.151 6.53437 18.5406 6.85312C18.9302 7.17187 19.1604 7.57917 19.2313 8.075L20.6125 15.5125C20.6833 16.0083 20.6748 16.4595 20.587 16.8661C20.4977 17.2741 20.2937 17.6375 19.975 17.9562L14.875 23.1625C16.3625 25.7125 18.2219 28.1031 20.4531 30.3344C22.6844 32.5656 25.1458 34.4958 27.8375 36.125L32.8312 31.1312C33.15 30.8125 33.5665 30.5731 34.0807 30.413C34.5936 30.2543 35.0979 30.2104 35.5938 30.2812L42.925 31.7687C43.4208 31.875 43.8281 32.1137 44.1469 32.4849C44.4656 32.8575 44.625 33.2917 44.625 33.7875V42.3938C44.625 43.0312 44.4125 43.5625 43.9875 43.9875C43.5625 44.4125 43.0312 44.625 42.3938 44.625Z" fill="#F38906"/>
</svg>
