<svg width="39" height="34" viewBox="0 0 39 34" fill="none" xmlns="http://www.w3.org/2000/svg">
<path d="M38.7418 4.94344C38.687 4.80807 38.5932 4.69209 38.4722 4.61034C38.3512 4.52858 38.2085 4.48476 38.0625 4.48446H32.0406C31.3723 3.17453 30.3591 2.07188 29.1103 1.2954C27.8615 0.518913 26.4243 0.0980578 24.9539 0.0782093C22.7983 0.0684119 20.7266 0.912852 19.192 2.42676C17.6574 3.94067 16.785 6.00078 16.7656 8.15633V10.2126C8.66915 8.4868 1.93126 1.82235 1.85782 1.76727C1.76567 1.66922 1.64776 1.59911 1.5176 1.56499C1.38744 1.53088 1.2503 1.53413 1.1219 1.57437C0.993498 1.61461 0.879037 1.69022 0.791637 1.79253C0.704237 1.89484 0.647434 2.01971 0.62774 2.15282C-0.951166 10.745 1.61915 16.4915 4.06094 19.7962C5.4288 21.674 7.13477 23.2804 9.09141 24.5329C6.20899 28.2782 1.1418 30.2059 1.08672 30.2427C0.983563 30.2812 0.890397 30.3425 0.814125 30.422C0.737853 30.5014 0.680427 30.597 0.6461 30.7016C0.611286 30.8056 0.601454 30.9163 0.617402 31.0247C0.633351 31.1332 0.674632 31.2363 0.737897 31.3259C0.774616 31.3993 1.25196 32.0602 2.48204 32.6845C4.04258 33.4556 6.13555 33.8595 8.68751 33.8595C21.3371 33.8595 31.9121 24.0372 32.8484 11.461L38.5766 5.7329C38.6825 5.63461 38.7552 5.50588 38.7848 5.36447C38.8144 5.22306 38.7994 5.07594 38.7418 4.94344ZM31.6184 10.6165C31.4913 10.7449 31.4133 10.9138 31.3981 11.0938C30.6453 23.0458 20.6578 32.3907 8.68751 32.3907C5.41954 32.3907 3.62032 31.6747 2.72071 31.1239C4.63008 30.2427 8.50391 28.1313 10.7621 24.7165C10.8241 24.6334 10.8662 24.5373 10.8853 24.4355C10.9044 24.3337 10.8999 24.2288 10.8723 24.129C10.8441 24.0273 10.7953 23.9324 10.729 23.8503C10.6627 23.7682 10.5802 23.7006 10.4867 23.6516C10.45 23.6333 7.67774 22.2196 5.23594 18.9149C2.18829 14.7657 1.05001 9.68016 1.85782 3.75008C4.20782 5.82469 10.2664 10.6348 17.3715 11.8098C17.4771 11.8289 17.5856 11.8257 17.6899 11.8004C17.7943 11.7751 17.8922 11.7283 17.9774 11.663C18.0584 11.592 18.1233 11.5045 18.1677 11.4063C18.212 11.3081 18.2348 11.2016 18.2344 11.0938V8.15633C18.2537 6.39352 18.9689 4.70976 20.224 3.47181C21.4792 2.23386 23.1726 1.54201 24.9356 1.54696C26.2056 1.56673 27.4431 1.95101 28.501 2.65406C29.5588 3.35711 30.3923 4.34932 30.9024 5.51258C30.9579 5.646 31.0525 5.75949 31.1737 5.83814C31.295 5.91678 31.4372 5.95689 31.5816 5.95321H36.2817L31.6184 10.6165Z" fill="#F4F4F4"/>
</svg>
