<svg width="70" height="70" viewBox="0 0 70 70" fill="none" xmlns="http://www.w3.org/2000/svg">
<path d="M27.7084 48.1249L48.125 34.9999L27.7084 21.8749V48.1249ZM35 64.1666C30.9653 64.1666 27.1737 63.4005 23.625 61.8682C20.0764 60.338 16.9896 58.2603 14.3646 55.6353C11.7396 53.0103 9.66199 49.9235 8.13171 46.3749C6.59949 42.8263 5.83337 39.0346 5.83337 34.9999C5.83337 30.9652 6.59949 27.1735 8.13171 23.6249C9.66199 20.0763 11.7396 16.9895 14.3646 14.3645C16.9896 11.7395 20.0764 9.66089 23.625 8.12867C27.1737 6.59839 30.9653 5.83325 35 5.83325C39.0348 5.83325 42.8264 6.59839 46.375 8.12867C49.9236 9.66089 53.0105 11.7395 55.6355 14.3645C58.2605 16.9895 60.3381 20.0763 61.8684 23.6249C63.4006 27.1735 64.1667 30.9652 64.1667 34.9999C64.1667 39.0346 63.4006 42.8263 61.8684 46.3749C60.3381 49.9235 58.2605 53.0103 55.6355 55.6353C53.0105 58.2603 49.9236 60.338 46.375 61.8682C42.8264 63.4005 39.0348 64.1666 35 64.1666Z" fill="#5D8E20"/>
</svg>
